<?xml version="1.0" encoding="UTF-8" standalone="no"?>
<svg
   xmlns:dc="http://purl.org/dc/elements/1.1/"
   xmlns:cc="http://creativecommons.org/ns#"
   xmlns:rdf="http://www.w3.org/1999/02/22-rdf-syntax-ns#"
   xmlns:svg="http://www.w3.org/2000/svg"
   xmlns="http://www.w3.org/2000/svg"
   xmlns:sodipodi="http://sodipodi.sourceforge.net/DTD/sodipodi-0.dtd"
   xmlns:inkscape="http://www.inkscape.org/namespaces/inkscape"
   width="32"
   height="32"
   version="1.1"
   id="svg44"
   sodipodi:docname="mathematica.svg"
   inkscape:version="0.92.3 (2405546, 2018-03-11)">
  <metadata
     id="metadata50">
    <rdf:RDF>
      <cc:Work
         rdf:about="">
        <dc:format>image/svg+xml</dc:format>
        <dc:type
           rdf:resource="http://purl.org/dc/dcmitype/StillImage" />
        <dc:title></dc:title>
      </cc:Work>
    </rdf:RDF>
  </metadata>
  <defs
     id="defs48" />
  <sodipodi:namedview
     pagecolor="#ffffff"
     bordercolor="#666666"
     borderopacity="1"
     objecttolerance="10"
     gridtolerance="10"
     guidetolerance="10"
     inkscape:pageopacity="0"
     inkscape:pageshadow="2"
     inkscape:window-width="1920"
     inkscape:window-height="1005"
     id="namedview46"
     showgrid="false"
     inkscape:zoom="4.9166667"
     inkscape:cx="24"
     inkscape:cy="24"
     inkscape:window-x="-9"
     inkscape:window-y="-9"
     inkscape:window-maximized="1"
     inkscape:current-layer="svg44" />
  <g
     transform="matrix(0.80012582,0,0,0.80012582,-310.86278,-403.168)"
     id="g42"
     style="fill-rule:evenodd">
    <path
       d="m 409.05779,503.88075 -4.43371,6.94364 3.98052,5.62543 4.43371,-5.53764 -3.98052,-7.03143"
       id="path2"
       inkscape:connector-curvature="0"
       style="fill:#eb989e" />
    <path
       d="m 413.03831,510.91218 -4.43371,5.53764 7.60083,-3.07675 4.88559,-5.5376 -8.05271,3.07671"
       id="path4"
       inkscape:connector-curvature="0"
       style="fill:#e93837" />
    <path
       d="m 416.20543,513.37307 -0.0918,8.26315 4.25424,-5.53761 0.72303,-8.26314 -4.88559,5.5376"
       id="path6"
       inkscape:connector-curvature="0"
       style="fill:#f58661" />
    <path
       d="m 420.36799,516.09861 -4.25294,5.53761 6.60537,2.37308 5.60862,-6.41687 -7.96105,-1.49382"
       id="path8"
       inkscape:connector-curvature="0"
       style="fill:#f7a498" />
    <path
       d="m 422.72042,524.0093 -6.60668,-2.37308 4.79654,6.06566 7.6008,2.98766 -5.79066,-6.68024"
       id="path10"
       inkscape:connector-curvature="0"
       style="fill:#f3736c" />
    <path
       d="m 420.91028,527.70062 -7.60084,2.0219 6.96689,1.93408 8.23475,-0.96706 -7.6008,-2.98892"
       id="path12"
       inkscape:connector-curvature="0"
       style="fill:#7a1b1c" />
    <path
       d="m 420.27633,531.6566 -6.96689,-1.93408 -0.45189,6.41685 7.60082,3.95596 -0.18204,-8.43873"
       id="path14"
       inkscape:connector-curvature="0"
       style="fill:#d12b33" />
    <path
       d="m 408.69498,536.22718 -0.0904,7.64728 4.25294,-7.73509 0.45191,-6.41685 -4.61446,6.50466"
       id="path16"
       inkscape:connector-curvature="0"
       style="fill:#f15759" />
    <path
       d="m 404.62279,510.82439 -7.96104,-3.25231 4.61446,5.97659 7.32839,2.90115 -3.98181,-5.62543"
       id="path18"
       inkscape:connector-curvature="0"
       style="fill:#f4806d" />
    <path
       d="m 401.27621,513.54867 -4.61574,-5.97659 0.90506,8.61431 3.98182,4.92178 -0.27114,-7.5595"
       id="path20"
       inkscape:connector-curvature="0"
       style="fill:#4c1317" />
    <path
       d="m 397.56553,516.18639 -8.05272,1.40604 5.88106,5.88882 6.15348,-2.37308 -3.98182,-4.92178"
       id="path22"
       inkscape:connector-curvature="0"
       style="fill:#dc505e" />
    <path
       d="m 395.39387,523.48125 -6.8765,6.32907 7.96233,-2.46088 5.06765,-6.24127 -6.15348,2.37308"
       id="path24"
       inkscape:connector-curvature="0"
       style="fill:#eb2537" />
    <path
       d="m 396.4797,527.34944 -7.96233,2.46088 9.13983,1.40601 6.60406,-1.31821 -7.78156,-2.54868"
       id="path26"
       inkscape:connector-curvature="0"
       style="fill:#5f1726" />
    <path
       d="m 404.26126,529.89812 -6.60534,1.31948 -1.44736,8.96553 8.14309,-4.13156 -0.0903,-6.15345"
       id="path28"
       inkscape:connector-curvature="0"
       style="fill:#841921" />
    <path
       d="m 404.26126,529.89812 0.0904,6.15345 4.25296,7.82289 0.0904,-7.64728 -4.43372,-6.32906"
       id="path30"
       inkscape:connector-curvature="0"
       style="fill:#511119" />
    <path
       d="m 408.69498,523.92148 7.41876,-2.28526 0.0918,-8.26315 -7.60082,3.07675 0.0904,7.47166"
       id="path32"
       inkscape:connector-curvature="0"
       style="fill:#b02a3c" />
    <path
       d="m 416.11374,521.63622 -7.41876,2.28526 4.61446,5.80104 7.60084,-2.0219 -4.79654,-6.0644"
       id="path34"
       inkscape:connector-curvature="0"
       style="fill:#e85e5c" />
    <path
       d="m 408.69498,523.92148 -4.43372,5.97664 4.43372,6.32906 4.61446,-6.50466 -4.61446,-5.80104"
       id="path36"
       inkscape:connector-curvature="0"
       style="fill:#f7a0a0" />
    <path
       d="m 396.4797,527.34944 7.78156,2.54868 4.43372,-5.97664 -7.14763,-2.81331 -5.06765,6.24127"
       id="path38"
       inkscape:connector-curvature="0"
       style="fill:#f58f8a" />
    <path
       d="m 408.69498,523.92148 -0.0904,-7.47166 -7.3297,-2.90115 0.27245,7.5595 7.14764,2.81331"
       id="path40"
       inkscape:connector-curvature="0"
       style="fill:#e53147" />
  </g>
</svg>
