<?xml version="1.0" encoding="UTF-8" standalone="no"?>
<!-- Created with Inkscape (http://www.inkscape.org/) -->

<svg
   xmlns:dc="http://purl.org/dc/elements/1.1/"
   xmlns:cc="http://creativecommons.org/ns#"
   xmlns:rdf="http://www.w3.org/1999/02/22-rdf-syntax-ns#"
   xmlns:svg="http://www.w3.org/2000/svg"
   xmlns="http://www.w3.org/2000/svg"
   xmlns:xlink="http://www.w3.org/1999/xlink"
   xmlns:sodipodi="http://sodipodi.sourceforge.net/DTD/sodipodi-0.dtd"
   xmlns:inkscape="http://www.inkscape.org/namespaces/inkscape"
   width="32"
   version="1.1"
   height="32"
   id="svg45"
   sodipodi:docname="network-card.svg"
   inkscape:version="0.92.3 (2405546, 2018-03-11)">
  <sodipodi:namedview
     pagecolor="#ffffff"
     bordercolor="#666666"
     borderopacity="1"
     objecttolerance="10"
     gridtolerance="10"
     guidetolerance="10"
     inkscape:pageopacity="0"
     inkscape:pageshadow="2"
     inkscape:window-width="1920"
     inkscape:window-height="1005"
     id="namedview47"
     showgrid="false"
     inkscape:zoom="3.6875"
     inkscape:cx="32"
     inkscape:cy="32"
     inkscape:window-x="-9"
     inkscape:window-y="-9"
     inkscape:window-maximized="1"
     inkscape:current-layer="layer1" />
  <defs
     id="defs5455">
    <linearGradient
       inkscape:collect="always"
       id="linearGradient4251-0">
      <stop
         style="stop-color:#63984b"
         id="stop4253-4" />
      <stop
         offset="1"
         style="stop-color:#8fc278"
         id="stop4255-2" />
    </linearGradient>
    <linearGradient
       inkscape:collect="always"
       xlink:href="#linearGradient4251-0"
       id="linearGradient4232"
       y1="54"
       y2="12"
       x2="0"
       gradientUnits="userSpaceOnUse"
       gradientTransform="matrix(0.6037736,0,0,0.76190469,373.55256,514.65511)" />
    <linearGradient
       inkscape:collect="always"
       xlink:href="#linearGradient4159"
       id="linearGradient4384"
       y1="1043.3622"
       y2="1012.3622"
       x2="0"
       gradientUnits="userSpaceOnUse"
       gradientTransform="matrix(0.3773585,0,0,0.41782331,410.14126,114.52359)" />
    <linearGradient
       inkscape:collect="always"
       id="linearGradient4159">
      <stop
         style="stop-color:#2a2c2f"
         id="stop4161" />
      <stop
         offset="1"
         style="stop-color:#424649"
         id="stop4163" />
    </linearGradient>
    <linearGradient
       inkscape:collect="always"
       id="linearGradient4300-2">
      <stop
         style="stop-color:#22a7f0"
         id="stop4302-4" />
      <stop
         offset="1"
         style="stop-color:#19b5fe"
         id="stop4304-7" />
    </linearGradient>
    <linearGradient
       id="linearGradient4300-2-3">
      <stop
         style="stop-color:#f9b425"
         id="stop4302-4-0" />
      <stop
         offset="1"
         style="stop-color:#f9bf3b"
         id="stop4304-1" />
    </linearGradient>
    <linearGradient
       inkscape:collect="always"
       xlink:href="#linearGradient4300-2"
       id="linearGradient4824"
       y1="523.79797"
       y2="516.79797"
       gradientUnits="userSpaceOnUse"
       x2="0"
       gradientTransform="matrix(0.6037736,0,0,0.76190469,-81.175679,-230.17982)" />
    <linearGradient
       inkscape:collect="always"
       xlink:href="#linearGradient4300-2"
       id="linearGradient4830"
       y1="523.79797"
       y2="516.79797"
       gradientUnits="userSpaceOnUse"
       x2="0"
       gradientTransform="matrix(0.6037736,0,0,0.76190469,-81.175679,-225.60839)" />
    <linearGradient
       inkscape:collect="always"
       id="linearGradient4227">
      <stop
         style="stop-color:#292c2f"
         id="stop4229" />
      <stop
         offset="1"
         style="stop-opacity:0"
         id="stop4231" />
    </linearGradient>
    <linearGradient
       inkscape:collect="always"
       xlink:href="#linearGradient4227"
       id="linearGradient4864"
       y1="20"
       x1="20"
       y2="48"
       x2="48"
       gradientUnits="userSpaceOnUse"
       gradientTransform="matrix(0.6037736,0,0,0.76190469,373.55256,514.65511)" />
    <linearGradient
       inkscape:collect="always"
       xlink:href="#linearGradient4227"
       id="linearGradient4936"
       y1="6"
       x1="-6"
       y2="36"
       gradientUnits="userSpaceOnUse"
       x2="24"
       gradientTransform="matrix(0.6037736,0,0,0.76190469,373.55256,523.79797)" />
    <linearGradient
       inkscape:collect="always"
       xlink:href="#linearGradient4227"
       id="linearGradient4940"
       y1="6"
       x1="-6"
       y2="36"
       gradientUnits="userSpaceOnUse"
       x2="24"
       gradientTransform="matrix(0.6037736,0,0,0.76190469,373.55256,528.3694)" />
  </defs>
  <metadata
     id="metadata5458">
    <rdf:RDF>
      <cc:Work
         rdf:about="">
        <dc:format>image/svg+xml</dc:format>
        <dc:type
           rdf:resource="http://purl.org/dc/dcmitype/StillImage" />
        <dc:title></dc:title>
      </cc:Work>
    </rdf:RDF>
  </metadata>
  <g
     inkscape:label="Capa 1"
     inkscape:groupmode="layer"
     id="layer1"
     transform="translate(-376.57144,-523.79797)">
    <path
       inkscape:connector-curvature="0"
       style="fill:url(#linearGradient4232);stroke-width:0.67824626"
       id="rect4200"
       d="m 377.17521,523.79797 v 32 h 2.4151 v -3.04762 h 7.24528 v 3.04762 h 18.11321 v -3.04762 h 3.62264 v -19.80952 h -10.86792 -18.11321 v -7.61905 -1.52381 z" />
    <path
       style="opacity:0.2;fill:url(#linearGradient4940);fill-rule:evenodd;stroke-width:0.67824626"
       id="path4938"
       d="m 382.60918,545.1313 -3.01887,3.04762 3.62264,4.57143 h 3.62264 v 3.04762 h 4.22642 z"
       inkscape:connector-curvature="0" />
    <path
       style="opacity:0.2;fill:url(#linearGradient4936);fill-rule:evenodd;stroke-width:0.67824626"
       id="path4934"
       d="m 382.60918,540.55987 -3.01887,3.04762 7.24528,9.14286 2.4151,3.04762 h 5.43396 z"
       inkscape:connector-curvature="0" />
    <path
       inkscape:connector-curvature="0"
       style="opacity:0.2;fill:url(#linearGradient4864);fill-rule:evenodd;stroke-width:0.67824626"
       id="path4842"
       d="m 402.53371,537.51226 -12.07547,12.95238 3.62264,5.33333 h 10.86792 v -3.04762 h 3.62264 v -7.61905 z" />
    <rect
       width="18.113207"
       x="386.8356"
       y="555.03607"
       height="0.76190168"
       style="fill:#dce269;stroke-width:0.67824626"
       id="rect4234" />
    <path
       inkscape:connector-curvature="0"
       style="color:#000000;stroke-width:0.67824626"
       id="path4303"
       d="m 391.66578,551.22654 v 0.76191 h 0.60377 v -0.76191 z m 0.60377,0.76191 v 0.7619 h 0.60378 v -0.7619 z m 0.60378,0 h 0.60377 v -0.76191 h -0.60377 z m 0.60377,0 v 0.7619 h 0.60378 v -0.7619 z m 0.60378,0 h 0.60377 v -0.76191 h -0.60377 z m 0.60377,0 v 0.7619 h 0.60377 v -0.7619 z m 0.60377,0 h 0.60377 v -0.76191 h -0.60377 z m 0.60377,0 v 0.7619 h 0.60378 v -0.7619 z m 0.60378,0 h 0.60377 v -0.76191 h -0.60377 z m 0.60377,0 v 0.7619 h 0.60378 v -0.7619 z m 0.60378,0 h 0.60377 v -0.76191 h -0.60377 z m 0.60377,0 v 0.7619 h 0.60377 v -0.7619 z m 0.60377,0 h 0.60378 v -0.76191 h -0.60378 z m 0.60378,0 v 0.7619 h 0.60377 v -0.7619 z m 0.60377,0 h 0.60377 v -0.76191 h -0.60377 z m 0.60377,0 v 0.7619 h 0.60378 v -0.7619 z" />
    <path
       inkscape:connector-curvature="0"
       style="color:#000000;stroke-width:0.67824626"
       id="path4313"
       d="m 382.00541,550.46464 v 0.7619 h 0.60377 v -0.7619 z m 0.60377,0.7619 v 0.76191 h 0.60377 v -0.76191 z m 0.60377,0 h 0.60377 v -0.7619 h -0.60377 z m 0.60377,0 v 0.76191 h 0.60378 v -0.76191 z m 0.60378,0 h 0.60377 v -0.7619 h -0.60377 z m -2.41509,0 h -0.60378 v 0.76191 h 0.60378 z" />
    <rect
       width="12.075473"
       x="390.51862"
       y="537.51227"
       height="12.952525"
       style="fill:url(#linearGradient4384);fill-rule:evenodd;stroke-width:0.67824626"
       id="rect4241" />
    <rect
       width="2.4150946"
       x="377.1752"
       y="523.79797"
       height="31.999996"
       style="fill:#afc0c6;stroke-width:0.67824626"
       id="rect4487" />
    <rect
       width="0.60377365"
       x="377.1752"
       y="523.79797"
       height="31.999996"
       style="fill:#96aab5;stroke-width:0.67824626"
       id="rect4489" />
    <path
       inkscape:connector-curvature="0"
       style="color:#000000;stroke-width:0.67824626"
       id="path4497"
       d="m 401.32616,535.22654 v 0.76191 h -0.60378 v -0.76191 z m -0.60378,0.76191 v 0.7619 h -0.60377 v -0.7619 z m -0.60377,0 h -0.60377 v -0.76191 h 0.60377 z m -0.60377,0 v 0.7619 h -0.60378 v -0.7619 z m -0.60378,0 h -0.60377 v -0.76191 h 0.60377 z m -0.60377,0 v 0.7619 h -0.60377 v -0.7619 z m -0.60377,0 h -0.60378 v -0.76191 h 0.60378 z m -0.60378,0 v 0.7619 h -0.60377 v -0.7619 z m -0.60377,0 h -0.60378 v -0.76191 h 0.60378 z m -0.60378,0 v 0.7619 h -0.60377 v -0.7619 z m -0.60377,0 h -0.60377 v -0.76191 h 0.60377 z m -0.60377,0 v 0.7619 h -0.60377 v -0.7619 z m -0.60377,0 h -0.60378 v -0.76191 h 0.60378 z m -0.60378,0 v 0.7619 h -0.60377 v -0.7619 z m -0.60377,0 h -0.60378 v -0.76191 h 0.60378 z m -0.60378,0 v 0.7619 h -0.60377 v -0.7619 z" />
    <path
       inkscape:connector-curvature="0"
       style="fill:url(#linearGradient4824);stroke-width:0.67824626"
       id="path4822"
       d="m 379.59032,540.55987 v 3.04762 h 2.35494 c 0.0214,0 0.0393,-0.0122 0.0601,-0.0149 v 0.0149 h 0.60377 v -3.04762 h -0.60377 v 0.0149 c -0.0208,-0.003 -0.0387,-0.0149 -0.0601,-0.0149 z" />
    <path
       inkscape:connector-curvature="0"
       style="fill:url(#linearGradient4830);stroke-width:0.67824626"
       id="path4828"
       d="m 379.59032,545.1313 v 3.04762 h 2.35494 c 0.0214,0 0.0393,-0.0122 0.0601,-0.0148 v 0.0148 h 0.60377 v -3.04762 h -0.60377 v 0.0149 c -0.0208,-0.003 -0.0387,-0.0149 -0.0601,-0.0149 z" />
    <rect
       width="3.0188682"
       x="379.5903"
       y="547.41699"
       height="0.76190472"
       style="opacity:0.08999999;stroke-width:0.67824626"
       id="rect4832" />
    <rect
       width="3.0188682"
       x="379.5903"
       y="542.84558"
       height="0.76190472"
       style="opacity:0.08999999;stroke-width:0.67824626"
       id="rect4834" />
    <rect
       width="1.2075473"
       x="376.57144"
       y="540.55988"
       height="3.0476189"
       style="fill:#afc0c6;stroke-width:0.67824626"
       id="rect4197-7" />
    <rect
       width="1.2075473"
       x="376.57144"
       y="545.13129"
       height="3.0476189"
       style="fill:#afc0c6;stroke-width:0.67824626"
       id="rect4197-5" />
    <path
       inkscape:connector-curvature="0"
       style="fill:#afc0c6;stroke-width:0.67824626"
       id="rect4161"
       d="m 395.95256,539.41709 v 0.76191 h 3.62264 v 5.33333 h -3.62264 v 1.52381 0.76191 h -0.60377 c -0.3345,0 -0.60378,-0.33981 -0.60378,-0.76191 v -1.52381 -1.52381 -0.7619 h 0.60378 V 540.179 h -1.81132 v 3.04762 h 0.60377 v 0.7619 1.52381 1.52381 c 0,0.84419 0.53857,1.52381 1.20755,1.52381 h 0.60377 1.20755 1.20755 v -0.7619 h -1.20755 v -0.76191 h 3.01887 v -0.7619 -0.76191 -6.09524 z m -1.81132,2.28572 h 0.60377 v 0.7619 h -0.60377 z m -1.20754,2.28571 v 3.04762 h 0.60377 v -1.52381 -1.52381 z" />
  </g>
</svg>
