<?xml version="1.0" encoding="UTF-8" standalone="no"?>
<svg
   xmlns:dc="http://purl.org/dc/elements/1.1/"
   xmlns:cc="http://creativecommons.org/ns#"
   xmlns:rdf="http://www.w3.org/1999/02/22-rdf-syntax-ns#"
   xmlns:svg="http://www.w3.org/2000/svg"
   xmlns="http://www.w3.org/2000/svg"
   xmlns:sodipodi="http://sodipodi.sourceforge.net/DTD/sodipodi-0.dtd"
   xmlns:inkscape="http://www.inkscape.org/namespaces/inkscape"
   width="32"
   height="32"
   version="1.1"
   id="svg22"
   sodipodi:docname="network-manager.svg"
   inkscape:version="0.92.3 (2405546, 2018-03-11)">
  <metadata
     id="metadata26">
    <rdf:RDF>
      <cc:Work
         rdf:about="">
        <dc:format>image/svg+xml</dc:format>
        <dc:type
           rdf:resource="http://purl.org/dc/dcmitype/StillImage" />
        <dc:title></dc:title>
      </cc:Work>
    </rdf:RDF>
  </metadata>
  <sodipodi:namedview
     pagecolor="#ffffff"
     bordercolor="#666666"
     borderopacity="1"
     objecttolerance="10"
     gridtolerance="10"
     guidetolerance="10"
     inkscape:pageopacity="0"
     inkscape:pageshadow="2"
     inkscape:window-width="1920"
     inkscape:window-height="1005"
     id="namedview24"
     showgrid="false"
     inkscape:zoom="4.9166667"
     inkscape:cx="24"
     inkscape:cy="24"
     inkscape:window-x="-9"
     inkscape:window-y="-9"
     inkscape:window-maximized="1"
     inkscape:current-layer="svg22" />
  <defs
     id="defs12">
    <linearGradient
       id="a"
       y1="543.79999"
       y2="503.79999"
       gradientUnits="userSpaceOnUse"
       x2="0">
      <stop
         stop-color="#197cf1"
         id="stop2" />
      <stop
         offset="1"
         stop-color="#20bcfa"
         id="stop4" />
    </linearGradient>
    <linearGradient
       id="b"
       y1="503.79999"
       y2="543.79999"
       x2="0"
       gradientUnits="userSpaceOnUse">
      <stop
         stop-color="#abf9c7"
         id="stop7" />
      <stop
         offset="1"
         stop-color="#54d883"
         id="stop9" />
    </linearGradient>
  </defs>
  <g
     transform="matrix(0.79999985,0,0,0.79997976,-310.85594,-403.02979)"
     id="g20">
    <rect
       width="40"
       x="388.57001"
       y="503.79999"
       rx="20"
       height="40"
       id="rect14"
       style="fill:url(#a)" />
    <path
       d="m 408.57,503.8 c -1.452,0 -2.864,0.16 -4.227,0.451 l -1.773,3.549 -2.68,-2.01 c -4.806,2.311 -8.529,6.472 -10.254,11.584 l 3.934,-1.574 3,2 1,-3 13,-7 -0.793,-3.961 c -0.4,-0.024 -0.801,-0.039 -1.207,-0.039 m 14.811,6.568 -0.811,2.432 1,1 -4,6 2,7 6.633,0.83 c 0.239,-1.239 0.367,-2.519 0.367,-3.83 0,-3.425 -0.857,-6.641 -2.361,-9.453 l -1.639,-0.547 0.596,-1.193 c -0.535,-0.794 -1.144,-1.531 -1.785,-2.238 m -34.414,9.432 c -0.221,1.096 -0.346,2.227 -0.381,3.381 l 6.984,2.619 -1,-3 -2,-3 z m 6.604,6 5,12 v 4.338 c 2.449,1.065 5.151,1.662 8,1.662 0.199,0 0.395,-0.008 0.592,-0.014 l 6.408,-10.986 -16,-9 z"
       id="path16"
       inkscape:connector-curvature="0"
       style="fill:url(#b);fill-rule:evenodd" />
    <path
       d="M 4.051,23.5 C 4.047,23.67 4,23.829 4,24 c 0,11.08 8.92,20 20,20 11.08,0 20,-8.92 20,-20 0,-0.171 -0.047,-0.33 -0.051,-0.5 -0.03,1.206 -0.121,2.398 -0.354,3.541 -0.266,1.304 -0.657,2.561 -1.162,3.758 -0.505,1.197 -1.122,2.335 -1.84,3.398 -0.717,1.064 -1.536,2.053 -2.439,2.957 -0.904,0.904 -1.893,1.722 -2.957,2.439 -1.064,0.717 -2.201,1.335 -3.398,1.84 -1.197,0.505 -2.454,0.897 -3.758,1.162 -1.304,0.266 -2.656,0.404 -4.04,0.404 -1.385,0 -2.737,-0.139 -4.04,-0.404 -1.304,-0.266 -2.561,-0.657 -3.758,-1.162 -0.599,-0.252 -1.183,-0.533 -1.75,-0.84 -0.567,-0.307 -1.117,-0.641 -1.648,-1 C 11.741,38.876 10.752,38.057 9.848,37.154 8.944,36.25 8.126,35.261 7.409,34.197 6.692,33.133 6.074,31.996 5.569,30.799 5.064,29.602 4.672,28.345 4.407,27.041 4.174,25.898 4.084,24.706 4.053,23.5"
       transform="translate(384.57,499.8)"
       id="path18"
       inkscape:connector-curvature="0"
       style="opacity:0.2" />
  </g>
</svg>
