<?xml version="1.0" encoding="UTF-8" standalone="no"?>
<svg
   xmlns:dc="http://purl.org/dc/elements/1.1/"
   xmlns:cc="http://creativecommons.org/ns#"
   xmlns:rdf="http://www.w3.org/1999/02/22-rdf-syntax-ns#"
   xmlns:svg="http://www.w3.org/2000/svg"
   xmlns="http://www.w3.org/2000/svg"
   xmlns:sodipodi="http://sodipodi.sourceforge.net/DTD/sodipodi-0.dtd"
   xmlns:inkscape="http://www.inkscape.org/namespaces/inkscape"
   width="32"
   height="32"
   version="1.1"
   id="svg71"
   sodipodi:docname="ntfs-config.svg"
   inkscape:version="0.92.3 (2405546, 2018-03-11)">
  <metadata
     id="metadata75">
    <rdf:RDF>
      <cc:Work
         rdf:about="">
        <dc:format>image/svg+xml</dc:format>
        <dc:type
           rdf:resource="http://purl.org/dc/dcmitype/StillImage" />
        <dc:title></dc:title>
      </cc:Work>
    </rdf:RDF>
  </metadata>
  <sodipodi:namedview
     pagecolor="#ffffff"
     bordercolor="#666666"
     borderopacity="1"
     objecttolerance="10"
     gridtolerance="10"
     guidetolerance="10"
     inkscape:pageopacity="0"
     inkscape:pageshadow="2"
     inkscape:window-width="1920"
     inkscape:window-height="1005"
     id="namedview73"
     showgrid="false"
     inkscape:zoom="4.9166667"
     inkscape:cx="24"
     inkscape:cy="24"
     inkscape:window-x="-9"
     inkscape:window-y="-9"
     inkscape:window-maximized="1"
     inkscape:current-layer="svg71" />
  <defs
     id="defs17">
    <linearGradient
       id="a"
       y1="543.79999"
       y2="503.79999"
       gradientUnits="userSpaceOnUse"
       x2="0"
       gradientTransform="matrix(1.125,0,0,1,-51.07,0)">
      <stop
         stop-color="#c6cdd1"
         id="stop2" />
      <stop
         offset="1"
         stop-color="#e0e5e7"
         id="stop4" />
    </linearGradient>
    <linearGradient
       id="b"
       y1="38"
       y2="5"
       x2="0"
       gradientUnits="userSpaceOnUse">
      <stop
         stop-color="#eef1f2"
         id="stop7" />
      <stop
         offset="1"
         stop-color="#f9fafb"
         id="stop9" />
    </linearGradient>
    <linearGradient
       id="c"
       y1="513.79999"
       x1="398.57001"
       y2="531.79999"
       x2="416.57001"
       gradientUnits="userSpaceOnUse"
       gradientTransform="translate(-384.57,-499.8)">
      <stop
         stop-color="#292c2f"
         id="stop12" />
      <stop
         offset="1"
         stop-opacity="0"
         id="stop14" />
    </linearGradient>
  </defs>
  <g
     transform="matrix(0.88888889,0,0,0.79999951,-347.17334,-403.03974)"
     id="g69">
    <rect
       width="36"
       x="390.57001"
       y="503.79999"
       rx="0"
       height="40"
       id="rect19"
       style="fill:url(#a)" />
    <rect
       width="36"
       x="390.57001"
       y="539.70001"
       height="4.0999999"
       id="rect21"
       style="fill:#99a1a7" />
    <rect
       width="36"
       x="390.57001"
       y="542.79999"
       height="1"
       id="rect23"
       style="fill:#737b81;stroke-width:2.79999995;stroke-opacity:0.55" />
    <g
       id="g33"
       style="stroke-width:0.1">
      <g
         id="g29"
         style="fill:#292c2e">
        <rect
           width="12"
           x="400.57001"
           y="540.79999"
           height="3"
           id="rect25" />
        <path
           d="m 416.57,540.8 h 6 v 3 h -6 z"
           id="path27"
           inkscape:connector-curvature="0" />
      </g>
      <path
         d="m 8,5 v 15.05 c 1.698,0.243 3,1.684 3,3.451 0,1.768 -1.302,3.208 -3,3.451 v 3.049 c 0,8 16,8 16,8 h 10 l 6,-7 v -3.9 h -2 v -7.1 h 2 v -15 H 11 Z"
         transform="translate(384.57,499.8)"
         id="path31"
         inkscape:connector-curvature="0"
         style="fill:url(#b)" />
    </g>
    <path
       d="M 27.25,13.254 19.596,21 41.996,43.9 V 28 Z"
       transform="translate(384.57,499.8)"
       id="path35"
       inkscape:connector-curvature="0"
       style="opacity:0.2;fill:url(#c);fill-rule:evenodd" />
    <path
       d="m 395.57,506.8 c -0.139,0 -0.25,0.111 -0.25,0.25 0,0.139 0.111,0.25 0.25,0.25 0.139,0 0.25,-0.111 0.25,-0.25 0,-0.139 -0.111,-0.25 -0.25,-0.25 m 1.75,0 -0.5,0.5 0.75,0.75 -0.75,0.75 0.5,0.5 1.25,-1.25 z m -2.375,1.5 c -0.208,0 -0.375,0.167 -0.375,0.375 0,0.208 0.167,0.375 0.375,0.375 0.208,0 0.375,-0.167 0.375,-0.375 0,-0.208 -0.167,-0.375 -0.375,-0.375 m 1.125,1.5 c -0.277,0 -0.5,0.223 -0.5,0.5 0,0.277 0.223,0.5 0.5,0.5 0.277,0 0.5,-0.223 0.5,-0.5 0,-0.277 -0.223,-0.5 -0.5,-0.5"
       id="path37"
       inkscape:connector-curvature="0"
       style="fill:#4d4d4d" />
    <g
       id="g59"
       style="stroke-width:0.1">
      <rect
         width="12"
         x="402.57001"
         y="510.79999"
         rx="6"
         height="12"
         id="rect39"
         style="fill:#abb9be" />
      <rect
         width="10"
         x="403.57001"
         y="511.79999"
         rx="5"
         height="10"
         id="rect41"
         style="fill:#ced6d9" />
      <g
         id="g49"
         style="fill:#4d4d4d">
        <rect
           width="11"
           x="412.57001"
           y="505.79999"
           height="1"
           id="rect43" />
        <rect
           width="9"
           x="414.57001"
           y="507.79999"
           height="1"
           id="rect45" />
        <rect
           width="11"
           x="412.57001"
           y="509.79999"
           height="1"
           id="rect47" />
      </g>
      <rect
         width="10"
         x="397.57001"
         y="526.79999"
         height="5"
         id="rect51"
         style="fill:#fdbc4a" />
      <g
         id="g57"
         style="fill:#ffffff">
        <rect
           width="8"
           x="398.57001"
           y="527.79999"
           height="1"
           id="rect53" />
        <rect
           width="6"
           x="398.57001"
           y="529.79999"
           height="1"
           id="rect55" />
      </g>
    </g>
    <path
       d="m 402.57,541.8 v 1 h 8 v -1 z m 15,0 v 1 h 3 v 1 h 1 v -2 z"
       id="path61"
       inkscape:connector-curvature="0"
       style="fill:#4c5154" />
    <g
       id="g67"
       style="fill:#202324">
      <rect
         width="12"
         x="400.57001"
         y="542.79999"
         height="1"
         id="rect63" />
      <rect
         width="6"
         x="416.57001"
         y="542.79999"
         height="1"
         id="rect65" />
    </g>
  </g>
</svg>
