<?xml version="1.0" encoding="UTF-8" standalone="no"?>
<!-- Created with Inkscape (http://www.inkscape.org/) -->

<svg
   xmlns:dc="http://purl.org/dc/elements/1.1/"
   xmlns:cc="http://creativecommons.org/ns#"
   xmlns:rdf="http://www.w3.org/1999/02/22-rdf-syntax-ns#"
   xmlns:svg="http://www.w3.org/2000/svg"
   xmlns="http://www.w3.org/2000/svg"
   xmlns:xlink="http://www.w3.org/1999/xlink"
   xmlns:sodipodi="http://sodipodi.sourceforge.net/DTD/sodipodi-0.dtd"
   xmlns:inkscape="http://www.inkscape.org/namespaces/inkscape"
   width="32"
   version="1.1"
   height="32"
   id="svg20"
   sodipodi:docname="preferences-other.svg"
   inkscape:version="0.92.3 (2405546, 2018-03-11)">
  <sodipodi:namedview
     pagecolor="#ffffff"
     bordercolor="#666666"
     borderopacity="1"
     objecttolerance="10"
     gridtolerance="10"
     guidetolerance="10"
     inkscape:pageopacity="0"
     inkscape:pageshadow="2"
     inkscape:window-width="1920"
     inkscape:window-height="1005"
     id="namedview22"
     showgrid="false"
     inkscape:zoom="7.375"
     inkscape:cx="16"
     inkscape:cy="10.081552"
     inkscape:window-x="-9"
     inkscape:window-y="-9"
     inkscape:window-maximized="1"
     inkscape:current-layer="layer1" />
  <defs
     id="defs5455">
    <linearGradient
       inkscape:collect="always"
       xlink:href="#linearGradient4303"
       id="linearGradient4238"
       y1="545.79797"
       y2="517.79797"
       x2="0"
       gradientUnits="userSpaceOnUse"
       gradientTransform="matrix(1.1428576,0,0,1.1428571,-57.224692,-75.971109)" />
    <linearGradient
       inkscape:collect="always"
       xlink:href="#linearGradient4159"
       id="linearGradient4370"
       y1="30"
       y2="1.999974"
       x2="0"
       gradientUnits="userSpaceOnUse"
       gradientTransform="matrix(1.1428576,0,0,1.1428571,382.2857,513.5123)" />
    <linearGradient
       inkscape:collect="always"
       id="linearGradient4303">
      <stop
         style="stop-color:#c6cdd1"
         id="stop4305" />
      <stop
         offset="1"
         style="stop-color:#e0e5e7"
         id="stop4307" />
    </linearGradient>
    <linearGradient
       inkscape:collect="always"
       id="linearGradient4159">
      <stop
         style="stop-color:#2a2c2f"
         id="stop4161" />
      <stop
         offset="1"
         style="stop-color:#424649"
         id="stop4163" />
    </linearGradient>
    <linearGradient
       inkscape:collect="always"
       xlink:href="#linearGradient4227"
       id="linearGradient4198"
       y1="9"
       x1="9.00001"
       y2="22.999973"
       x2="23"
       gradientUnits="userSpaceOnUse"
       gradientTransform="matrix(1.1428576,0,0,1.1428571,382.2857,513.5123)" />
    <linearGradient
       inkscape:collect="always"
       id="linearGradient4227">
      <stop
         style="stop-color:#292c2f"
         id="stop4229" />
      <stop
         offset="1"
         style="stop-opacity:0"
         id="stop4231" />
    </linearGradient>
  </defs>
  <metadata
     id="metadata5458">
    <rdf:RDF>
      <cc:Work
         rdf:about="">
        <dc:format>image/svg+xml</dc:format>
        <dc:type
           rdf:resource="http://purl.org/dc/dcmitype/StillImage" />
        <dc:title></dc:title>
      </cc:Work>
    </rdf:RDF>
  </metadata>
  <g
     inkscape:label="Capa 1"
     inkscape:groupmode="layer"
     id="layer1"
     transform="matrix(1 0 0 1 -384.57143 -515.798)">
    <rect
       width="32"
       x="384.57144"
       y="515.79797"
       rx="16"
       height="32"
       style="fill:url(#linearGradient4238);stroke-width:1.14285743"
       id="rect4175" />
    <path
       inkscape:connector-curvature="0"
       style="opacity:0.2;fill:url(#linearGradient4198);fill-rule:evenodd;stroke-width:1.14285743"
       id="path4175"
       d="m 393.02901,530.65518 -0.11383,2.28572 1.14286,1.14285 12.53795,12.53795 c 3.98754,-1.61424 7.1623,-4.78062 8.78571,-8.7634 l -7.14626,-7.26026 -0.58857,-0.4 -3.18927,0.45714 -0.0937,1.89956 -1.8427,-1.9567 -0.58857,-0.4 -3.18927,0.45714 -0.0937,1.89956 -1.8427,-1.9567 -0.58857,-0.4 z" />
    <path
       inkscape:connector-curvature="0"
       style="fill:url(#linearGradient4370);stroke-width:1.14285743"
       id="rect4176"
       d="m 400.57142,529.51232 c -1.26628,0 -2.28571,1.01943 -2.28571,2.28572 0,1.26628 1.01943,2.28571 2.28571,2.28571 1.26629,0 2.28572,-1.01943 2.28572,-2.28571 0,-1.26629 -1.01943,-2.28572 -2.28572,-2.28572 z m -5.71428,0 c -1.26629,0 -2.28572,1.01943 -2.28572,2.28572 0,1.26628 1.01943,2.28571 2.28572,2.28571 1.26628,0 2.28571,-1.01943 2.28571,-2.28571 0,-1.26629 -1.01943,-2.28572 -2.28571,-2.28572 z m 11.42857,0 c -1.26628,0 -2.28571,1.01943 -2.28571,2.28572 0,1.26628 1.01943,2.28571 2.28571,2.28571 1.26629,0 2.28572,-1.01943 2.28572,-2.28571 0,-1.26629 -1.01943,-2.28572 -2.28572,-2.28572 z" />
  </g>
</svg>
